<svg xmlns="http://www.w3.org/2000/svg" viewBox="70 82 160 240" role="img" aria-label="ตัวการ์ตูนผู้ชาย">
  <!-- Character only (transparent background) from mascot-male.svg, framed 2:3 like the
       outfit images so it stands on whichever background the user picked. -->

  <!-- thobe (เสื้อโต๊ป) -->
  <path d="M120,236 L180,236 L200,308 Q200,314 194,314 L106,314 Q100,314 100,308 Z" fill="#f4efe1"/>
  <path d="M150,236 L150,314" stroke="#e2dccb" stroke-width="2"/>
  <path d="M138,236 q12,14 24,0" fill="#e2dccb"/>

  <!-- beard -->
  <circle cx="150" cy="210" r="28" fill="#3b2f26"/>

  <!-- face -->
  <circle cx="150" cy="200" r="27" fill="#f4c9a0"/>

  <!-- kufi cap (กะปิเยาะฮ์) -->
  <ellipse cx="150" cy="172" rx="27" ry="12" fill="#1B5E3A"/>
  <rect x="123" y="170" width="54" height="7" rx="3.5" fill="#164e30"/>

  <circle cx="133" cy="206" r="4" fill="#f2a9a0" opacity=".45"/>
  <circle cx="167" cy="206" r="4" fill="#f2a9a0" opacity=".45"/>

  <path d="M138,197 q4,5 8,0" stroke="#2b2b2b" stroke-width="2.2" fill="none" stroke-linecap="round"/>
  <path d="M154,197 q4,5 8,0" stroke="#2b2b2b" stroke-width="2.2" fill="none" stroke-linecap="round"/>
  <path d="M142,209 q8,6 16,0" stroke="#2b2b2b" stroke-width="2.2" fill="none" stroke-linecap="round"/>
</svg>
